<?xml version="1.0" encoding="utf-8"?>
<svg width="124px" height="124px" viewBox="0 0 124 124" version="1.1" xmlns:xlink="http://www.w3.org/1999/xlink" xmlns="http://www.w3.org/2000/svg">
  <desc>Created with Lunacy</desc>
  <defs>
    <linearGradient x1="0.496774256" y1="3.62580633" x2="0.4774192" y2="0.174193472" id="gradient_1">
      <stop offset="0" stop-color="#000000" />
      <stop offset="1" stop-color="#D3D3D3" />
    </linearGradient>
  </defs>
  <g id="Group">
    <g id="New-group">
      <path d="M11.999 0L112.001 0Q112.296 0 112.59 0.0144533Q112.884 0.0289066 113.177 0.0577785Q113.47 0.0866503 113.762 0.129871Q114.053 0.173092 114.342 0.230557Q114.631 0.288023 114.917 0.359595Q115.202 0.431167 115.484 0.516673Q115.766 0.602179 116.043 0.701413Q116.321 0.800647 116.593 0.913369Q116.865 1.02609 117.131 1.15203Q117.397 1.27797 117.657 1.41683Q117.917 1.55568 118.17 1.70711Q118.422 1.85855 118.667 2.0222Q118.912 2.18584 119.149 2.36131Q119.385 2.53678 119.613 2.72365Q119.841 2.91051 120.059 3.10833Q120.277 3.30614 120.486 3.51443Q120.694 3.72271 120.892 3.94096Q121.089 4.15922 121.276 4.38691Q121.463 4.61461 121.639 4.8512Q121.814 5.0878 121.978 5.33271Q122.141 5.57763 122.293 5.83028Q122.444 6.08293 122.583 6.34271Q122.722 6.60249 122.848 6.86877Q122.974 7.13504 123.087 7.40718Q123.199 7.67932 123.299 7.95666Q123.398 8.234 123.483 8.51587Q123.569 8.79775 123.64 9.08348Q123.712 9.36921 123.769 9.65811Q123.827 9.94701 123.87 10.2384Q123.913 10.5298 123.942 10.8229Q123.971 11.116 123.986 11.4102Q124 11.7044 124 11.999L124 112.001Q124 112.296 123.986 112.59Q123.971 112.884 123.942 113.177Q123.913 113.47 123.87 113.762Q123.827 114.053 123.769 114.342Q123.712 114.631 123.64 114.917Q123.569 115.202 123.483 115.484Q123.398 115.766 123.299 116.043Q123.199 116.321 123.087 116.593Q122.974 116.865 122.848 117.131Q122.722 117.397 122.583 117.657Q122.444 117.917 122.293 118.17Q122.141 118.422 121.978 118.667Q121.814 118.912 121.639 119.149Q121.463 119.385 121.276 119.613Q121.089 119.841 120.892 120.059Q120.694 120.277 120.486 120.486Q120.277 120.694 120.059 120.892Q119.841 121.089 119.613 121.276Q119.385 121.463 119.149 121.639Q118.912 121.814 118.667 121.978Q118.422 122.141 118.17 122.293Q117.917 122.444 117.657 122.583Q117.397 122.722 117.131 122.848Q116.865 122.974 116.593 123.087Q116.321 123.199 116.043 123.299Q115.766 123.398 115.484 123.483Q115.202 123.569 114.917 123.64Q114.631 123.712 114.342 123.769Q114.053 123.827 113.762 123.87Q113.47 123.913 113.177 123.942Q112.884 123.971 112.59 123.986Q112.296 124 112.001 124L11.999 124Q11.7044 124 11.4102 123.986Q11.116 123.971 10.8229 123.942Q10.5298 123.913 10.2384 123.87Q9.94701 123.827 9.65811 123.769Q9.36921 123.712 9.08348 123.64Q8.79775 123.569 8.51587 123.483Q8.234 123.398 7.95666 123.299Q7.67932 123.199 7.40718 123.087Q7.13504 122.974 6.86877 122.848Q6.60249 122.722 6.34271 122.583Q6.08293 122.444 5.83028 122.293Q5.57763 122.141 5.33271 121.978Q5.0878 121.814 4.8512 121.639Q4.61461 121.463 4.38691 121.276Q4.15922 121.089 3.94096 120.892Q3.72271 120.694 3.51443 120.486Q3.30614 120.277 3.10833 120.059Q2.91051 119.841 2.72365 119.613Q2.53678 119.385 2.36131 119.149Q2.18584 118.912 2.0222 118.667Q1.85855 118.422 1.70711 118.17Q1.55568 117.917 1.41683 117.657Q1.27797 117.397 1.15203 117.131Q1.02609 116.865 0.913369 116.593Q0.800647 116.321 0.701413 116.043Q0.602179 115.766 0.516673 115.484Q0.431167 115.202 0.359595 114.917Q0.288023 114.631 0.230557 114.342Q0.173092 114.053 0.129871 113.762Q0.0866503 113.47 0.0577785 113.177Q0.0289066 112.884 0.0144533 112.59Q0 112.296 0 112.001L0 11.999Q0 11.7044 0.0144533 11.4102Q0.0289066 11.116 0.0577785 10.8229Q0.0866503 10.5298 0.129871 10.2384Q0.173092 9.94701 0.230557 9.65811Q0.288023 9.36921 0.359595 9.08348Q0.431167 8.79775 0.516673 8.51587Q0.602179 8.234 0.701413 7.95666Q0.800647 7.67932 0.913369 7.40718Q1.02609 7.13504 1.15203 6.86877Q1.27797 6.60249 1.41683 6.34271Q1.55568 6.08293 1.70711 5.83028Q1.85855 5.57763 2.0222 5.33271Q2.18584 5.0878 2.36131 4.8512Q2.53678 4.61461 2.72365 4.38691Q2.91051 4.15922 3.10833 3.94096Q3.30614 3.72271 3.51443 3.51443Q3.72271 3.30614 3.94096 3.10833Q4.15922 2.91051 4.38691 2.72365Q4.61461 2.53678 4.8512 2.36131Q5.0878 2.18584 5.33271 2.0222Q5.57763 1.85855 5.83028 1.70711Q6.08293 1.55568 6.34271 1.41683Q6.60249 1.27797 6.86877 1.15203Q7.13504 1.02609 7.40718 0.913369Q7.67932 0.800647 7.95666 0.701413Q8.234 0.602179 8.51587 0.516673Q8.79775 0.431167 9.08348 0.359595Q9.36921 0.288023 9.65811 0.230557Q9.94701 0.173092 10.2384 0.129871Q10.5298 0.0866503 10.8229 0.0577785Q11.116 0.0289066 11.4102 0.0144533Q11.7044 0 11.999 0Z" id="Rectangle" fill="url(#gradient_1)" stroke="none" />
      <g id="2" fill="#FFFFFF" transform="translate(6 6)">
        <path d="M42.9414 48.0625L19.5508 48.0625L19.5508 43.4219L30.5898 31.6563Q32.8633 29.1719 33.9531 27.3203Q35.043 25.4688 35.043 23.8047Q35.043 21.5313 33.8945 20.2305Q32.7461 18.9297 30.6133 18.9297Q28.3164 18.9297 26.9922 20.5117Q25.668 22.0938 25.668 24.6719L18.8711 24.6719Q18.8711 21.5547 20.3594 18.9766Q21.8477 16.3984 24.5664 14.9336Q27.2852 13.4688 30.7305 13.4688Q36.0039 13.4688 38.9219 16Q41.8398 18.5313 41.8398 23.1484Q41.8398 25.6797 40.5273 28.3047Q39.2148 30.9297 36.0273 34.4219L28.2695 42.6016L42.9414 42.6016L42.9414 48.0625Z" />
      </g>
      <g id="2" fill="#FFFFFF" transform="translate(6 56)">
        <path d="M42.9414 48.0625L19.5508 48.0625L19.5508 43.4219L30.5898 31.6563Q32.8633 29.1719 33.9531 27.3203Q35.043 25.4688 35.043 23.8047Q35.043 21.5313 33.8945 20.2305Q32.7461 18.9297 30.6133 18.9297Q28.3164 18.9297 26.9922 20.5117Q25.668 22.0938 25.668 24.6719L18.8711 24.6719Q18.8711 21.5547 20.3594 18.9766Q21.8477 16.3984 24.5664 14.9336Q27.2852 13.4688 30.7305 13.4688Q36.0039 13.4688 38.9219 16Q41.8398 18.5313 41.8398 23.1484Q41.8398 25.6797 40.5273 28.3047Q39.2148 30.9297 36.0273 34.4219L28.2695 42.6016L42.9414 42.6016L42.9414 48.0625Z" />
      </g>
      <g id="3" fill="#FFFFFF" transform="translate(56 56)">
        <path d="M26.4414 28L30.0508 28Q32.6289 28 33.8711 26.7109Q35.1133 25.4219 35.1133 23.2891Q35.1133 21.2266 33.8828 20.0781Q32.6523 18.9297 30.4961 18.9297Q28.5508 18.9297 27.2383 19.9961Q25.9258 21.0625 25.9258 22.7734L19.1523 22.7734Q19.1523 20.1016 20.5938 17.9805Q22.0352 15.8594 24.625 14.6641Q27.2148 13.4688 30.332 13.4688Q35.7461 13.4688 38.8164 16.0586Q41.8867 18.6484 41.8867 23.1953Q41.8867 25.5391 40.457 27.5078Q39.0273 29.4766 36.707 30.5313Q39.5898 31.5625 41.0078 33.625Q42.4258 35.6875 42.4258 38.5Q42.4258 43.0469 39.1094 45.7891Q35.793 48.5313 30.332 48.5313Q25.2227 48.5313 21.9766 45.8359Q18.7305 43.1406 18.7305 38.7109L25.5039 38.7109Q25.5039 40.6328 26.9453 41.8516Q28.3867 43.0703 30.4961 43.0703Q32.9102 43.0703 34.2813 41.793Q35.6523 40.5156 35.6523 38.4063Q35.6523 33.2969 30.0273 33.2969L26.4414 33.2969L26.4414 28Z" />
      </g>
      <g id="0" fill="#FFFFFF" transform="translate(56 6)">
        <path d="M42.5195 33.9531Q42.5195 41.0313 39.5898 44.7813Q36.6602 48.5313 31.0117 48.5313Q25.4336 48.5313 22.4805 44.8516Q19.5273 41.1719 19.457 34.3047L19.457 28.0234Q19.457 20.875 22.4219 17.1719Q25.3867 13.4688 30.9648 13.4688Q36.543 13.4688 39.4961 17.1367Q42.4492 20.8047 42.5195 27.6719L42.5195 33.9531ZM35.7461 27.0471Q35.7461 22.8005 34.5859 20.8651Q33.4258 18.9297 30.9648 18.9297Q28.5742 18.9297 27.4375 20.7714Q26.3008 22.613 26.2305 26.5308L26.2305 34.8357Q26.2305 39.0116 27.3672 41.041Q28.5039 43.0703 31.0117 43.0703Q33.4961 43.0703 34.5977 41.1232Q35.6992 39.176 35.7461 35.1642L35.7461 27.0471Z" />
      </g>
    </g>
  </g>
</svg>