<?xml version="1.0" encoding="utf-8"?>
<svg width="234px" height="164px" viewBox="0 0 234 164" version="1.1" xmlns:xlink="http://www.w3.org/1999/xlink" xmlns="http://www.w3.org/2000/svg">
  <desc>Created with Lunacy</desc>
  <g id="Group" transform="translate(16.6 16.6)">
    <path d="M9.999 0L190.001 0Q190.246 0 190.492 0.0120442Q190.737 0.0240885 190.981 0.0481479Q191.225 0.0722074 191.468 0.108224Q191.711 0.144241 191.952 0.192128Q192.192 0.240015 192.431 0.299657Q192.669 0.3593 192.904 0.430553Q193.138 0.501807 193.37 0.584501Q193.601 0.667194 193.827 0.761128Q194.054 0.855062 194.276 0.960011Q194.498 1.06496 194.714 1.18067Q194.931 1.29638 195.142 1.42257Q195.352 1.54876 195.556 1.68514Q195.76 1.82151 195.957 1.96773Q196.155 2.11395 196.344 2.26967Q196.534 2.42539 196.716 2.59023Q196.898 2.75507 197.071 2.92864Q197.245 3.10221 197.41 3.28408Q197.575 3.46596 197.73 3.6557Q197.886 3.84545 198.032 4.0426Q198.178 4.23976 198.315 4.44385Q198.451 4.64795 198.577 4.85849Q198.704 5.06903 198.819 5.2855Q198.935 5.50198 199.04 5.72388Q199.145 5.94577 199.239 6.17255Q199.333 6.39932 199.415 6.63044Q199.498 6.86155 199.569 7.09644Q199.641 7.33134 199.7 7.56944Q199.76 7.80755 199.808 8.04829Q199.856 8.28904 199.892 8.53184Q199.928 8.77465 199.952 9.01893Q199.976 9.26321 199.988 9.50837Q200 9.75354 200 9.999L200 120.001Q200 120.246 199.988 120.492Q199.976 120.737 199.952 120.981Q199.928 121.225 199.892 121.468Q199.856 121.711 199.808 121.952Q199.76 122.192 199.7 122.431Q199.641 122.669 199.569 122.904Q199.498 123.138 199.415 123.37Q199.333 123.601 199.239 123.827Q199.145 124.054 199.04 124.276Q198.935 124.498 198.819 124.714Q198.704 124.931 198.577 125.141Q198.451 125.352 198.315 125.556Q198.178 125.76 198.032 125.957Q197.886 126.155 197.73 126.344Q197.575 126.534 197.41 126.716Q197.245 126.898 197.071 127.071Q196.898 127.245 196.716 127.41Q196.534 127.575 196.344 127.73Q196.155 127.886 195.957 128.032Q195.76 128.178 195.556 128.315Q195.352 128.451 195.142 128.577Q194.931 128.704 194.715 128.819Q194.498 128.935 194.276 129.04Q194.054 129.145 193.827 129.239Q193.601 129.333 193.37 129.415Q193.138 129.498 192.904 129.569Q192.669 129.641 192.431 129.7Q192.192 129.76 191.952 129.808Q191.711 129.856 191.468 129.892Q191.225 129.928 190.981 129.952Q190.737 129.976 190.492 129.988Q190.246 130 190.001 130L9.999 130Q9.75354 130 9.50837 129.988Q9.26321 129.976 9.01893 129.952Q8.77465 129.928 8.53184 129.892Q8.28904 129.856 8.04829 129.808Q7.80755 129.76 7.56944 129.7Q7.33134 129.641 7.09644 129.569Q6.86155 129.498 6.63044 129.415Q6.39932 129.333 6.17255 129.239Q5.94577 129.145 5.72388 129.04Q5.50198 128.935 5.2855 128.819Q5.06903 128.704 4.85849 128.577Q4.64795 128.451 4.44385 128.315Q4.23976 128.178 4.0426 128.032Q3.84545 127.886 3.6557 127.73Q3.46596 127.575 3.28408 127.41Q3.10221 127.245 2.92864 127.071Q2.75507 126.898 2.59023 126.716Q2.42539 126.534 2.26967 126.344Q2.11395 126.155 1.96773 125.957Q1.82151 125.76 1.68514 125.556Q1.54876 125.352 1.42257 125.141Q1.29638 124.931 1.18067 124.714Q1.06496 124.498 0.960011 124.276Q0.855062 124.054 0.761128 123.827Q0.667194 123.601 0.584501 123.37Q0.501807 123.138 0.430553 122.904Q0.3593 122.669 0.299657 122.431Q0.240015 122.192 0.192128 121.952Q0.144241 121.711 0.108224 121.468Q0.0722074 121.225 0.0481479 120.981Q0.0240885 120.737 0.0120442 120.492Q0 120.246 0 120.001L0 9.999Q0 9.75354 0.0120442 9.50837Q0.0240885 9.26321 0.0481479 9.01893Q0.0722074 8.77465 0.108224 8.53184Q0.144241 8.28904 0.192128 8.04829Q0.240015 7.80755 0.299657 7.56944Q0.3593 7.33134 0.430553 7.09644Q0.501807 6.86155 0.584501 6.63044Q0.667194 6.39932 0.761128 6.17255Q0.855062 5.94577 0.960011 5.72388Q1.06496 5.50198 1.18067 5.2855Q1.29638 5.06903 1.42257 4.85849Q1.54876 4.64795 1.68514 4.44385Q1.82151 4.23976 1.96773 4.0426Q2.11395 3.84545 2.26967 3.6557Q2.42539 3.46596 2.59023 3.28408Q2.75507 3.10221 2.92864 2.92864Q3.10221 2.75507 3.28408 2.59023Q3.46596 2.42539 3.6557 2.26967Q3.84545 2.11395 4.0426 1.96773Q4.23976 1.82151 4.44385 1.68514Q4.64795 1.54876 4.85849 1.42257Q5.06903 1.29638 5.2855 1.18067Q5.50198 1.06496 5.72388 0.960011Q5.94577 0.855062 6.17255 0.761128Q6.39932 0.667194 6.63044 0.584501Q6.86155 0.501807 7.09644 0.430553Q7.33134 0.3593 7.56944 0.299657Q7.80755 0.240015 8.04829 0.192128Q8.28904 0.144241 8.53184 0.108224Q8.77465 0.0722074 9.01893 0.0481479Q9.26321 0.0240885 9.50837 0.0120442Q9.75354 0 9.999 0Z" id="Rectangle" fill="#FFFFFF" fill-opacity="0" stroke="#FFFFFF" stroke-width="10" />
    <path d="M0 3.57783C95.1999 104.083 97.5998 105.384 190.4 0" transform="translate(5 1.764297E-05)" id="New-shape" fill="none" stroke="#FFFFFF" stroke-width="10" />
  </g>
</svg>