<?xml version="1.0" encoding="utf-8"?>
<svg width="114px" height="79px" viewBox="0 0 114 79" version="1.1" xmlns:xlink="http://www.w3.org/1999/xlink" xmlns="http://www.w3.org/2000/svg">
  <desc>Created with Lunacy</desc>
  <g id="Group" transform="translate(6.64 6.64)">
    <path d="M9.999 0L90.001 0Q90.2465 0 90.4916 0.0120442Q90.7368 0.0240885 90.9811 0.0481479Q91.2253 0.0722074 91.4681 0.108224Q91.7109 0.144241 91.9517 0.192128Q92.1924 0.240015 92.4305 0.299657Q92.6686 0.3593 92.9035 0.430553Q93.1384 0.501807 93.3695 0.584501Q93.6007 0.667194 93.8274 0.761128Q94.0542 0.855062 94.2761 0.960011Q94.498 1.06496 94.7145 1.18067Q94.931 1.29638 95.1415 1.42257Q95.352 1.54876 95.5561 1.68514Q95.7602 1.82151 95.9574 1.96773Q96.1545 2.11395 96.3443 2.26967Q96.534 2.42539 96.7159 2.59023Q96.8978 2.75507 97.0714 2.92864Q97.2449 3.10221 97.4098 3.28408Q97.5746 3.46596 97.7303 3.6557Q97.886 3.84545 98.0323 4.0426Q98.1785 4.23976 98.3148 4.44385Q98.4512 4.64795 98.5774 4.85849Q98.7036 5.06903 98.8193 5.2855Q98.935 5.50198 99.04 5.72388Q99.1449 5.94577 99.2389 6.17255Q99.3328 6.39932 99.4155 6.63044Q99.4982 6.86155 99.5694 7.09644Q99.6407 7.33134 99.7003 7.56944Q99.76 7.80755 99.8079 8.04829Q99.8557 8.28904 99.8918 8.53184Q99.9278 8.77465 99.9519 9.01893Q99.9759 9.26321 99.988 9.50837Q100 9.75354 100 9.999L100 55.001Q100 55.2465 99.988 55.4916Q99.9759 55.7368 99.9519 55.9811Q99.9278 56.2254 99.8918 56.4682Q99.8557 56.711 99.8079 56.9517Q99.76 57.1925 99.7003 57.4306Q99.6407 57.6687 99.5694 57.9036Q99.4982 58.1385 99.4155 58.3696Q99.3328 58.6007 99.2389 58.8275Q99.1449 59.0542 99.04 59.2761Q98.935 59.498 98.8193 59.7145Q98.7036 59.931 98.5774 60.1415Q98.4512 60.3521 98.3148 60.5561Q98.1785 60.7602 98.0322 60.9574Q97.886 61.1546 97.7303 61.3443Q97.5746 61.534 97.4098 61.7159Q97.2449 61.8978 97.0714 62.0714Q96.8978 62.2449 96.7159 62.4098Q96.534 62.5746 96.3443 62.7303Q96.1545 62.8861 95.9574 63.0323Q95.7602 63.1785 95.5561 63.3149Q95.352 63.4512 95.1415 63.5774Q94.931 63.7036 94.7145 63.8193Q94.498 63.935 94.2761 64.04Q94.0542 64.1449 93.8274 64.2389Q93.6007 64.3328 93.3696 64.4155Q93.1384 64.4982 92.9035 64.5695Q92.6687 64.6407 92.4305 64.7003Q92.1924 64.76 91.9517 64.8079Q91.7109 64.8558 91.4681 64.8918Q91.2253 64.9278 90.9811 64.9519Q90.7368 64.9759 90.4916 64.988Q90.2465 65 90.001 65L9.999 65Q9.75354 65 9.50837 64.988Q9.26321 64.9759 9.01893 64.9519Q8.77465 64.9278 8.53184 64.8918Q8.28904 64.8558 8.04829 64.8079Q7.80755 64.76 7.56944 64.7003Q7.33134 64.6407 7.09644 64.5695Q6.86155 64.4982 6.63044 64.4155Q6.39932 64.3328 6.17255 64.2389Q5.94577 64.1449 5.72388 64.04Q5.50198 63.935 5.2855 63.8193Q5.06903 63.7036 4.85849 63.5774Q4.64795 63.4512 4.44385 63.3149Q4.23976 63.1785 4.0426 63.0323Q3.84545 62.8861 3.6557 62.7303Q3.46596 62.5746 3.28408 62.4098Q3.10221 62.2449 2.92864 62.0714Q2.75507 61.8978 2.59023 61.7159Q2.42539 61.534 2.26967 61.3443Q2.11395 61.1546 1.96773 60.9574Q1.82151 60.7602 1.68514 60.5561Q1.54876 60.3521 1.42257 60.1415Q1.29638 59.931 1.18067 59.7145Q1.06496 59.498 0.960011 59.2761Q0.855062 59.0542 0.761128 58.8275Q0.667194 58.6007 0.584501 58.3696Q0.501807 58.1385 0.430553 57.9036Q0.3593 57.6687 0.299657 57.4306Q0.240015 57.1925 0.192128 56.9517Q0.144241 56.711 0.108224 56.4682Q0.0722074 56.2254 0.0481479 55.9811Q0.0240885 55.7368 0.0120442 55.4916Q0 55.2465 0 55.001L0 9.999Q0 9.75354 0.0120442 9.50837Q0.0240885 9.26321 0.0481479 9.01893Q0.0722074 8.77465 0.108224 8.53184Q0.144241 8.28904 0.192128 8.04829Q0.240015 7.80755 0.299657 7.56944Q0.3593 7.33134 0.430553 7.09644Q0.501807 6.86155 0.584501 6.63044Q0.667194 6.39932 0.761128 6.17255Q0.855062 5.94577 0.960011 5.72388Q1.06496 5.50198 1.18067 5.2855Q1.29638 5.06903 1.42257 4.85849Q1.54876 4.64795 1.68514 4.44385Q1.82151 4.23976 1.96773 4.0426Q2.11395 3.84545 2.26967 3.6557Q2.42539 3.46596 2.59023 3.28408Q2.75507 3.10221 2.92864 2.92864Q3.10221 2.75507 3.28408 2.59023Q3.46596 2.42539 3.6557 2.26967Q3.84545 2.11395 4.0426 1.96773Q4.23976 1.82151 4.44385 1.68514Q4.64795 1.54876 4.85849 1.42257Q5.06903 1.29638 5.2855 1.18067Q5.50198 1.06496 5.72388 0.960011Q5.94577 0.855062 6.17255 0.761128Q6.39932 0.667194 6.63044 0.584501Q6.86155 0.501807 7.09644 0.430553Q7.33134 0.3593 7.56944 0.299657Q7.80755 0.240015 8.04829 0.192128Q8.28904 0.144241 8.53184 0.108224Q8.77465 0.0722074 9.01893 0.0481479Q9.26321 0.0240885 9.50837 0.0120442Q9.75354 0 9.999 0Z" id="Rectangle" fill="#FFFFFF" fill-opacity="0" stroke="#FFFFFF" stroke-width="4" />
    <path d="M0 1.78892C47.6 52.0417 48.7999 52.6922 95.2 0" transform="translate(2.5 8.82149E-06)" id="New-shape" fill="none" stroke="#FFFFFF" stroke-width="4" />
  </g>
</svg>