<?xml version="1.0" encoding="utf-8"?>
<svg width="120px" height="96px" viewBox="0 0 120 96" version="1.1" xmlns:xlink="http://www.w3.org/1999/xlink" xmlns="http://www.w3.org/2000/svg">
  <desc>Created with Lunacy</desc>
  <g id="Group" transform="translate(9.96 9.96)">
    <path d="M9.999 0L90.001 0Q90.2465 0 90.4916 0.0120442Q90.7368 0.0240885 90.9811 0.0481479Q91.2253 0.0722074 91.4681 0.108224Q91.7109 0.144241 91.9517 0.192128Q92.1924 0.240015 92.4305 0.299657Q92.6686 0.3593 92.9035 0.430553Q93.1384 0.501807 93.3695 0.584501Q93.6007 0.667194 93.8274 0.761128Q94.0542 0.855062 94.2761 0.960011Q94.498 1.06496 94.7145 1.18067Q94.931 1.29638 95.1415 1.42257Q95.352 1.54876 95.5561 1.68514Q95.7602 1.82151 95.9574 1.96773Q96.1545 2.11395 96.3443 2.26967Q96.534 2.42539 96.7159 2.59023Q96.8978 2.75507 97.0714 2.92864Q97.2449 3.10221 97.4098 3.28408Q97.5746 3.46596 97.7303 3.6557Q97.886 3.84545 98.0323 4.0426Q98.1785 4.23976 98.3148 4.44385Q98.4512 4.64795 98.5774 4.85849Q98.7036 5.06903 98.8193 5.2855Q98.935 5.50198 99.04 5.72388Q99.1449 5.94577 99.2389 6.17255Q99.3328 6.39932 99.4155 6.63044Q99.4982 6.86155 99.5694 7.09644Q99.6407 7.33134 99.7003 7.56944Q99.76 7.80755 99.8079 8.04829Q99.8557 8.28904 99.8918 8.53184Q99.9278 8.77465 99.9519 9.01893Q99.9759 9.26321 99.988 9.50837Q100 9.75354 100 9.999L100 66.001Q100 66.2465 99.988 66.4916Q99.9759 66.7368 99.9519 66.9811Q99.9278 67.2254 99.8918 67.4682Q99.8557 67.711 99.8079 67.9517Q99.76 68.1925 99.7003 68.4306Q99.6407 68.6687 99.5694 68.9036Q99.4982 69.1384 99.4155 69.3696Q99.3328 69.6007 99.2389 69.8274Q99.1449 70.0542 99.04 70.2761Q98.935 70.498 98.8193 70.7145Q98.7036 70.931 98.5774 71.1415Q98.4512 71.352 98.3148 71.5561Q98.1785 71.7602 98.0322 71.9574Q97.886 72.1546 97.7303 72.3443Q97.5746 72.534 97.4098 72.7159Q97.2449 72.8978 97.0714 73.0714Q96.8978 73.2449 96.7159 73.4098Q96.534 73.5746 96.3443 73.7303Q96.1545 73.886 95.9574 74.0323Q95.7602 74.1785 95.5561 74.3148Q95.352 74.4512 95.1415 74.5774Q94.931 74.7036 94.7145 74.8193Q94.498 74.935 94.2761 75.04Q94.0542 75.1449 93.8274 75.2389Q93.6007 75.3328 93.3696 75.4155Q93.1384 75.4982 92.9035 75.5694Q92.6687 75.6407 92.4305 75.7003Q92.1924 75.76 91.9517 75.8079Q91.7109 75.8558 91.4681 75.8918Q91.2253 75.9278 90.9811 75.9519Q90.7368 75.9759 90.4916 75.988Q90.2465 76 90.001 76L9.999 76Q9.75354 76 9.50837 75.988Q9.26321 75.9759 9.01893 75.9519Q8.77465 75.9278 8.53184 75.8918Q8.28904 75.8558 8.04829 75.8079Q7.80755 75.76 7.56944 75.7003Q7.33134 75.6407 7.09644 75.5694Q6.86155 75.4982 6.63044 75.4155Q6.39932 75.3328 6.17255 75.2389Q5.94577 75.1449 5.72388 75.04Q5.50198 74.935 5.2855 74.8193Q5.06903 74.7036 4.85849 74.5774Q4.64795 74.4512 4.44385 74.3148Q4.23976 74.1785 4.0426 74.0323Q3.84545 73.886 3.6557 73.7303Q3.46596 73.5746 3.28408 73.4098Q3.10221 73.2449 2.92864 73.0714Q2.75507 72.8978 2.59023 72.7159Q2.42539 72.534 2.26967 72.3443Q2.11395 72.1546 1.96773 71.9574Q1.82151 71.7602 1.68514 71.5561Q1.54876 71.352 1.42257 71.1415Q1.29638 70.931 1.18067 70.7145Q1.06496 70.498 0.960011 70.2761Q0.855062 70.0542 0.761128 69.8275Q0.667194 69.6007 0.584501 69.3696Q0.501807 69.1385 0.430553 68.9036Q0.3593 68.6687 0.299657 68.4306Q0.240015 68.1925 0.192128 67.9517Q0.144241 67.711 0.108224 67.4682Q0.0722074 67.2253 0.0481479 66.9811Q0.0240885 66.7368 0.0120442 66.4916Q0 66.2465 0 66.001L0 9.999Q0 9.75354 0.0120442 9.50837Q0.0240885 9.26321 0.0481479 9.01893Q0.0722074 8.77465 0.108224 8.53184Q0.144241 8.28904 0.192128 8.04829Q0.240015 7.80755 0.299657 7.56944Q0.3593 7.33134 0.430553 7.09644Q0.501807 6.86155 0.584501 6.63044Q0.667194 6.39932 0.761128 6.17255Q0.855062 5.94577 0.960011 5.72388Q1.06496 5.50198 1.18067 5.2855Q1.29638 5.06903 1.42257 4.85849Q1.54876 4.64795 1.68514 4.44385Q1.82151 4.23976 1.96773 4.0426Q2.11395 3.84545 2.26967 3.6557Q2.42539 3.46596 2.59023 3.28408Q2.75507 3.10221 2.92864 2.92864Q3.10221 2.75507 3.28408 2.59023Q3.46596 2.42539 3.6557 2.26967Q3.84545 2.11395 4.0426 1.96773Q4.23976 1.82151 4.44385 1.68514Q4.64795 1.54876 4.85849 1.42257Q5.06903 1.29638 5.2855 1.18067Q5.50198 1.06496 5.72388 0.960011Q5.94577 0.855062 6.17255 0.761128Q6.39932 0.667194 6.63044 0.584501Q6.86155 0.501807 7.09644 0.430553Q7.33134 0.3593 7.56944 0.299657Q7.80755 0.240015 8.04829 0.192128Q8.28904 0.144241 8.53184 0.108224Q8.77465 0.0722074 9.01893 0.0481479Q9.26321 0.0240885 9.50837 0.0120442Q9.75354 0 9.999 0Z" id="Rectangle" fill="#FFFFFF" fill-opacity="0" stroke="#FFFFFF" stroke-width="6" />
    <path d="M0 2.09166C47.6 60.8488 48.7999 61.6093 95.2 0" transform="translate(2.5 1.085722E-05)" id="New-shape" fill="none" stroke="#FFFFFF" stroke-width="6" />
  </g>
</svg>