<?xml version="1.0" encoding="utf-8"?>
<svg width="125px" height="125px" viewBox="0 0 125 125" version="1.1" xmlns:xlink="http://www.w3.org/1999/xlink" xmlns="http://www.w3.org/2000/svg">
  <desc>Created with Lunacy</desc>
  <g id="Group-2">
    <path d="M15.999 0L109.001 0Q109.394 0 109.786 0.0192715Q110.178 0.038543 110.569 0.0770395Q110.96 0.115536 111.349 0.173165Q111.737 0.230794 112.122 0.307416Q112.507 0.384039 112.888 0.47947Q113.269 0.574901 113.645 0.688911Q114.021 0.802922 114.391 0.935236Q114.761 1.06755 115.124 1.21785Q115.486 1.36815 115.841 1.53607Q116.196 1.704 116.543 1.88914Q116.889 2.07428 117.226 2.2762Q117.563 2.47812 117.89 2.69632Q118.216 2.91452 118.532 3.14848Q118.847 3.38245 119.151 3.63161Q119.454 3.88077 119.745 4.14452Q120.036 4.40828 120.314 4.686Q120.592 4.96372 120.855 5.25473Q121.119 5.54574 121.368 5.84934Q121.618 6.15294 121.852 6.46841Q122.085 6.78387 122.304 7.11043Q122.522 7.43699 122.724 7.77387Q122.926 8.11075 123.111 8.45712Q123.296 8.8035 123.464 9.15855Q123.632 9.51359 123.782 9.87645Q123.932 10.2393 124.065 10.6091Q124.197 10.9789 124.311 11.3547Q124.425 11.7306 124.521 12.1116Q124.616 12.4925 124.693 12.8777Q124.769 13.263 124.827 13.6515Q124.884 14.04 124.923 14.4308Q124.961 14.8217 124.981 15.214Q125 15.6062 125 15.999L125 109.001Q125 109.394 124.981 109.786Q124.961 110.178 124.923 110.569Q124.884 110.96 124.827 111.349Q124.769 111.737 124.693 112.122Q124.616 112.507 124.521 112.888Q124.425 113.269 124.311 113.645Q124.197 114.021 124.065 114.391Q123.932 114.761 123.782 115.124Q123.632 115.486 123.464 115.841Q123.296 116.196 123.111 116.543Q122.926 116.889 122.724 117.226Q122.522 117.563 122.304 117.89Q122.085 118.216 121.852 118.532Q121.618 118.847 121.368 119.151Q121.119 119.454 120.855 119.745Q120.592 120.036 120.314 120.314Q120.036 120.592 119.745 120.855Q119.454 121.119 119.151 121.368Q118.847 121.618 118.532 121.852Q118.216 122.085 117.89 122.304Q117.563 122.522 117.226 122.724Q116.889 122.926 116.543 123.111Q116.196 123.296 115.841 123.464Q115.486 123.632 115.124 123.782Q114.761 123.932 114.391 124.065Q114.021 124.197 113.645 124.311Q113.269 124.425 112.888 124.521Q112.507 124.616 112.122 124.693Q111.737 124.769 111.349 124.827Q110.96 124.884 110.569 124.923Q110.178 124.961 109.786 124.981Q109.394 125 109.001 125L15.999 125Q15.6062 125 15.214 124.981Q14.8217 124.961 14.4308 124.923Q14.04 124.884 13.6515 124.827Q13.263 124.769 12.8777 124.693Q12.4925 124.616 12.1116 124.521Q11.7306 124.425 11.3547 124.311Q10.9789 124.197 10.6091 124.065Q10.2393 123.932 9.87645 123.782Q9.51359 123.632 9.15855 123.464Q8.8035 123.296 8.45712 123.111Q8.11075 122.926 7.77387 122.724Q7.43699 122.522 7.11043 122.304Q6.78387 122.085 6.46841 121.852Q6.15294 121.618 5.84934 121.368Q5.54574 121.119 5.25473 120.855Q4.96372 120.592 4.686 120.314Q4.40828 120.036 4.14452 119.745Q3.88077 119.454 3.63161 119.151Q3.38245 118.847 3.14848 118.532Q2.91452 118.216 2.69632 117.89Q2.47812 117.563 2.2762 117.226Q2.07428 116.889 1.88914 116.543Q1.704 116.196 1.53607 115.841Q1.36815 115.486 1.21785 115.124Q1.06755 114.761 0.935236 114.391Q0.802922 114.021 0.688911 113.645Q0.574901 113.269 0.47947 112.888Q0.384039 112.507 0.307416 112.122Q0.230794 111.737 0.173165 111.349Q0.115536 110.96 0.0770395 110.569Q0.038543 110.178 0.0192715 109.786Q0 109.394 0 109.001L0 15.999Q0 15.6062 0.0192715 15.214Q0.038543 14.8217 0.0770395 14.4308Q0.115536 14.04 0.173165 13.6515Q0.230794 13.263 0.307416 12.8777Q0.384039 12.4925 0.47947 12.1116Q0.574901 11.7306 0.688911 11.3547Q0.802922 10.9789 0.935236 10.6091Q1.06755 10.2393 1.21785 9.87645Q1.36815 9.51359 1.53607 9.15855Q1.704 8.8035 1.88914 8.45712Q2.07428 8.11075 2.2762 7.77387Q2.47812 7.43699 2.69632 7.11043Q2.91452 6.78387 3.14848 6.46841Q3.38245 6.15294 3.63161 5.84934Q3.88077 5.54574 4.14452 5.25473Q4.40828 4.96372 4.686 4.686Q4.96372 4.40828 5.25473 4.14452Q5.54574 3.88077 5.84934 3.63161Q6.15294 3.38245 6.46841 3.14848Q6.78387 2.91452 7.11043 2.69632Q7.43699 2.47812 7.77387 2.2762Q8.11075 2.07428 8.45712 1.88914Q8.8035 1.704 9.15855 1.53607Q9.51359 1.36815 9.87645 1.21785Q10.2393 1.06755 10.6091 0.935236Q10.9789 0.802922 11.3547 0.688911Q11.7306 0.574901 12.1116 0.47947Q12.4925 0.384039 12.8777 0.307416Q13.263 0.230794 13.6515 0.173165Q14.04 0.115536 14.4308 0.0770395Q14.8217 0.038543 15.214 0.0192715Q15.6062 0 15.999 0L15.999 0Z" id="Rectangle" fill="#2E98FF" stroke="none" />
    <g id="Group" transform="translate(10 11.99997)">
      <g id="JH" fill="#FFFFFF">
        <path d="M41.7129 20.6406L29.4082 20.6406L29.4082 61.9844Q29.4082 66.4551 27.3164 68.875Q25.2246 71.2949 21.6973 71.2949Q17.7187 71.2949 15.873 69.2031Q14.0273 67.1113 14.0273 62.7227L1.64063 62.7227Q1.64063 71.541 6.93164 76.3604Q12.2227 81.1797 21.6973 81.1797Q27.4805 81.1797 32.0742 78.8008Q36.668 76.4219 39.1904 72.0537Q41.7129 67.6855 41.7129 61.9844L41.7129 20.6406ZM88.5527 80.3594L100.857 80.3594L100.857 20.6406L88.5527 20.6406L88.5527 44.8398L64.5586 44.8398L64.5586 20.6406L52.2539 20.6406L52.2539 80.3594L64.5586 80.3594L64.5586 54.7656L88.5527 54.7656L88.5527 80.3594Z" />
      </g>
    </g>
  </g>
</svg>