<?xml version="1.0" encoding="utf-8"?>
<svg width="154px" height="234px" viewBox="0 0 154 234" version="1.1" xmlns:xlink="http://www.w3.org/1999/xlink" xmlns="http://www.w3.org/2000/svg">
  <desc>Created with Lunacy</desc>
  <g id="Group-2" transform="translate(16.6 16.6)">
    <path d="M9.999 0L110.001 0Q110.246 0 110.492 0.0120442Q110.737 0.0240885 110.981 0.0481479Q111.225 0.0722074 111.468 0.108224Q111.711 0.144241 111.952 0.192128Q112.192 0.240015 112.431 0.299657Q112.669 0.3593 112.904 0.430553Q113.138 0.501807 113.37 0.584501Q113.601 0.667194 113.827 0.761128Q114.054 0.855062 114.276 0.960011Q114.498 1.06496 114.714 1.18067Q114.931 1.29638 115.142 1.42257Q115.352 1.54876 115.556 1.68514Q115.76 1.82151 115.957 1.96773Q116.155 2.11395 116.344 2.26967Q116.534 2.42539 116.716 2.59023Q116.898 2.75507 117.071 2.92864Q117.245 3.10221 117.41 3.28408Q117.575 3.46596 117.73 3.6557Q117.886 3.84545 118.032 4.0426Q118.178 4.23976 118.315 4.44385Q118.451 4.64795 118.577 4.85849Q118.704 5.06903 118.819 5.2855Q118.935 5.50198 119.04 5.72388Q119.145 5.94577 119.239 6.17255Q119.333 6.39932 119.415 6.63044Q119.498 6.86155 119.569 7.09644Q119.641 7.33134 119.7 7.56944Q119.76 7.80755 119.808 8.04829Q119.856 8.28904 119.892 8.53184Q119.928 8.77465 119.952 9.01893Q119.976 9.26321 119.988 9.50837Q120 9.75354 120 9.999L120 190.001Q120 190.246 119.988 190.492Q119.976 190.737 119.952 190.981Q119.928 191.225 119.892 191.468Q119.856 191.711 119.808 191.952Q119.76 192.192 119.7 192.431Q119.641 192.669 119.569 192.904Q119.498 193.138 119.415 193.37Q119.333 193.601 119.239 193.827Q119.145 194.054 119.04 194.276Q118.935 194.498 118.819 194.714Q118.704 194.931 118.577 195.142Q118.451 195.352 118.315 195.556Q118.178 195.76 118.032 195.957Q117.886 196.155 117.73 196.344Q117.575 196.534 117.41 196.716Q117.245 196.898 117.071 197.071Q116.898 197.245 116.716 197.41Q116.534 197.575 116.344 197.73Q116.155 197.886 115.957 198.032Q115.76 198.178 115.556 198.315Q115.352 198.451 115.142 198.577Q114.931 198.704 114.715 198.819Q114.498 198.935 114.276 199.04Q114.054 199.145 113.827 199.239Q113.601 199.333 113.37 199.415Q113.138 199.498 112.904 199.569Q112.669 199.641 112.431 199.7Q112.192 199.76 111.952 199.808Q111.711 199.856 111.468 199.892Q111.225 199.928 110.981 199.952Q110.737 199.976 110.492 199.988Q110.246 200 110.001 200L9.999 200Q9.75354 200 9.50837 199.988Q9.26321 199.976 9.01893 199.952Q8.77465 199.928 8.53184 199.892Q8.28904 199.856 8.04829 199.808Q7.80755 199.76 7.56944 199.7Q7.33134 199.641 7.09644 199.569Q6.86155 199.498 6.63044 199.415Q6.39932 199.333 6.17255 199.239Q5.94577 199.145 5.72388 199.04Q5.50198 198.935 5.2855 198.819Q5.06903 198.704 4.85849 198.577Q4.64795 198.451 4.44385 198.315Q4.23976 198.178 4.0426 198.032Q3.84545 197.886 3.6557 197.73Q3.46596 197.575 3.28408 197.41Q3.10221 197.245 2.92864 197.071Q2.75507 196.898 2.59023 196.716Q2.42539 196.534 2.26967 196.344Q2.11395 196.155 1.96773 195.957Q1.82151 195.76 1.68514 195.556Q1.54876 195.352 1.42257 195.142Q1.29638 194.931 1.18067 194.715Q1.06496 194.498 0.960011 194.276Q0.855062 194.054 0.761128 193.827Q0.667194 193.601 0.584501 193.37Q0.501807 193.138 0.430553 192.904Q0.3593 192.669 0.299657 192.431Q0.240015 192.192 0.192128 191.952Q0.144241 191.711 0.108224 191.468Q0.0722074 191.225 0.0481479 190.981Q0.0240885 190.737 0.0120442 190.492Q0 190.246 0 190.001L0 9.999Q0 9.75354 0.0120442 9.50837Q0.0240885 9.26321 0.0481479 9.01893Q0.0722074 8.77465 0.108224 8.53184Q0.144241 8.28904 0.192128 8.04829Q0.240015 7.80755 0.299657 7.56944Q0.3593 7.33134 0.430553 7.09644Q0.501807 6.86155 0.584501 6.63044Q0.667194 6.39932 0.761128 6.17255Q0.855062 5.94577 0.960011 5.72388Q1.06496 5.50198 1.18067 5.2855Q1.29638 5.06903 1.42257 4.85849Q1.54876 4.64795 1.68514 4.44385Q1.82151 4.23976 1.96773 4.0426Q2.11395 3.84545 2.26967 3.6557Q2.42539 3.46596 2.59023 3.28408Q2.75507 3.10221 2.92864 2.92864Q3.10221 2.75507 3.28408 2.59023Q3.46596 2.42539 3.6557 2.26967Q3.84545 2.11395 4.0426 1.96773Q4.23976 1.82151 4.44385 1.68514Q4.64795 1.54876 4.85849 1.42257Q5.06903 1.29638 5.2855 1.18067Q5.50198 1.06496 5.72388 0.960011Q5.94577 0.855062 6.17255 0.761128Q6.39932 0.667194 6.63044 0.584501Q6.86155 0.501807 7.09644 0.430553Q7.33134 0.3593 7.56944 0.299657Q7.80755 0.240015 8.04829 0.192128Q8.28904 0.144241 8.53184 0.108224Q8.77465 0.0722074 9.01893 0.0481479Q9.26321 0.0240885 9.50837 0.0120442Q9.75354 0 9.999 0Z" id="Rectangle" fill="#FFFFFF" fill-opacity="0" stroke="#FFFFFF" stroke-width="10" />
    <path d="M0 0L115 0L115 18L0 18L0 0ZM22 8C22 6.34315 23.3431 5 25 5C26.6569 5 28 6.34315 28 8C28 9.65685 26.6569 11 25 11C23.3431 11 22 9.65685 22 8ZM73.501 6L42.499 6Q42.4254 6 42.3521 6.00722Q42.2788 6.01444 42.2066 6.0288Q42.1343 6.04317 42.0639 6.06455Q41.9934 6.08592 41.9254 6.1141Q41.8573 6.14229 41.7924 6.177Q41.7274 6.21171 41.6662 6.25263Q41.605 6.29354 41.548 6.34026Q41.4911 6.38697 41.439 6.43905Q41.387 6.49112 41.3403 6.54804Q41.2935 6.60497 41.2526 6.6662Q41.2117 6.72743 41.177 6.79238Q41.1423 6.85732 41.1141 6.92536Q41.0859 6.99339 41.0645 7.06386Q41.0432 7.13433 41.0288 7.20656Q41.0144 7.27879 41.0072 7.35207Q41 7.42536 41 7.499L41 7.501Q41 7.57464 41.0072 7.64793Q41.0144 7.72121 41.0288 7.79344Q41.0432 7.86567 41.0645 7.93614Q41.0859 8.00661 41.1141 8.07464Q41.1423 8.14268 41.177 8.20762Q41.2117 8.27257 41.2526 8.3338Q41.2935 8.39503 41.3403 8.45195Q41.387 8.50888 41.439 8.56095Q41.4911 8.61302 41.548 8.65974Q41.605 8.70646 41.6662 8.74737Q41.7274 8.78829 41.7924 8.823Q41.8573 8.85771 41.9254 8.88589Q41.9934 8.91408 42.0639 8.93545Q42.1343 8.95683 42.2066 8.9712Q42.2788 8.98556 42.3521 8.99278Q42.4254 9 42.499 9L73.501 9Q73.5746 9 73.6479 8.99278Q73.7212 8.98556 73.7934 8.9712Q73.8657 8.95683 73.9361 8.93545Q74.0066 8.91408 74.0746 8.88589Q74.1427 8.85771 74.2076 8.823Q74.2726 8.78829 74.3338 8.74737Q74.395 8.70646 74.452 8.65974Q74.5089 8.61302 74.561 8.56095Q74.613 8.50888 74.6597 8.45195Q74.7065 8.39503 74.7474 8.3338Q74.7883 8.27257 74.823 8.20762Q74.8577 8.14268 74.8859 8.07464Q74.9141 8.00661 74.9354 7.93614Q74.9568 7.86567 74.9712 7.79344Q74.9856 7.72121 74.9928 7.64793Q75 7.57464 75 7.501L75 7.499Q75 7.42536 74.9928 7.35207Q74.9856 7.27879 74.9712 7.20656Q74.9568 7.13433 74.9354 7.06386Q74.9141 6.99339 74.8859 6.92536Q74.8577 6.85732 74.823 6.79238Q74.7883 6.72743 74.7474 6.6662Q74.7065 6.60497 74.6597 6.54804Q74.613 6.49112 74.561 6.43905Q74.5089 6.38697 74.452 6.34026Q74.395 6.29354 74.3338 6.25263Q74.2726 6.21171 74.2076 6.177Q74.1427 6.14229 74.0746 6.1141Q74.0066 6.08592 73.9361 6.06455Q73.8657 6.04317 73.7934 6.0288Q73.7212 6.01444 73.6479 6.00722Q73.5746 6 73.501 6Z" transform="translate(2 1)" id="Rectangle-2-Difference-Difference" fill="#FFFFFF" fill-rule="evenodd" stroke="none" />
    <path d="M116 0L0 0L0 20L116 20L116 0ZM70.001 6L45.999 6Q45.8763 6 45.7537 6.00602Q45.6311 6.01204 45.509 6.02407Q45.3869 6.0361 45.2655 6.05411Q45.1441 6.07211 45.0237 6.09605Q44.9034 6.12 44.7843 6.14981Q44.6653 6.17963 44.5479 6.21526Q44.4304 6.25088 44.3149 6.29222Q44.1993 6.33356 44.086 6.38053Q43.9726 6.42749 43.8616 6.47996Q43.7507 6.53243 43.6425 6.59027Q43.5343 6.64812 43.429 6.71121Q43.3237 6.7743 43.2217 6.84248Q43.1197 6.91066 43.0211 6.98376Q42.9225 7.05687 42.8277 7.13472Q42.7328 7.21257 42.6419 7.29498Q42.5509 7.3774 42.4642 7.46417Q42.3774 7.55095 42.295 7.64188Q42.2126 7.7328 42.1347 7.82767Q42.0569 7.92253 41.9838 8.0211Q41.9107 8.11967 41.8425 8.2217Q41.7743 8.32374 41.7112 8.429Q41.6481 8.53426 41.5903 8.64249Q41.5324 8.75071 41.48 8.86165Q41.4275 8.97259 41.3805 9.08596Q41.3336 9.19934 41.2922 9.31489Q41.2509 9.43043 41.2153 9.54787Q41.1796 9.6653 41.1498 9.78434Q41.12 9.90338 41.0961 10.0237Q41.0721 10.1441 41.0541 10.2655Q41.0361 10.3869 41.0241 10.509Q41.012 10.6311 41.006 10.7537Q41 10.8763 41 10.999L41 11.001Q41 11.1237 41.006 11.2463Q41.012 11.3689 41.0241 11.491Q41.0361 11.6131 41.0541 11.7345Q41.0721 11.8559 41.0961 11.9763Q41.12 12.0966 41.1498 12.2157Q41.1796 12.3347 41.2153 12.4521Q41.2509 12.5696 41.2922 12.6851Q41.3336 12.8007 41.3805 12.914Q41.4275 13.0274 41.48 13.1383Q41.5324 13.2493 41.5903 13.3575Q41.6481 13.4657 41.7112 13.571Q41.7743 13.6763 41.8425 13.7783Q41.9107 13.8803 41.9838 13.9789Q42.0569 14.0775 42.1347 14.1723Q42.2126 14.2672 42.295 14.3581Q42.3774 14.4491 42.4642 14.5358Q42.5509 14.6226 42.6419 14.705Q42.7328 14.7874 42.8277 14.8653Q42.9225 14.9431 43.0211 15.0162Q43.1197 15.0893 43.2217 15.1575Q43.3237 15.2257 43.429 15.2888Q43.5343 15.3519 43.6425 15.4097Q43.7507 15.4676 43.8617 15.52Q43.9726 15.5725 44.086 15.6195Q44.1993 15.6664 44.3149 15.7078Q44.4304 15.7491 44.5479 15.7847Q44.6653 15.8204 44.7843 15.8502Q44.9034 15.88 45.0237 15.9039Q45.1441 15.9279 45.2655 15.9459Q45.3869 15.9639 45.509 15.9759Q45.6311 15.988 45.7537 15.994Q45.8763 16 45.999 16L70.001 16Q70.1237 16 70.2463 15.994Q70.3689 15.988 70.491 15.9759Q70.6131 15.9639 70.7345 15.9459Q70.8559 15.9279 70.9762 15.9039Q71.0966 15.88 71.2157 15.8502Q71.3347 15.8204 71.4521 15.7847Q71.5696 15.7491 71.6851 15.7078Q71.8007 15.6664 71.914 15.6195Q72.0274 15.5725 72.1383 15.52Q72.2493 15.4676 72.3575 15.4097Q72.4657 15.3519 72.571 15.2888Q72.6762 15.2257 72.7783 15.1575Q72.8803 15.0893 72.9789 15.0162Q73.0775 14.9431 73.1723 14.8653Q73.2672 14.7874 73.3581 14.705Q73.449 14.6226 73.5358 14.5358Q73.6226 14.4491 73.705 14.3581Q73.7874 14.2672 73.8653 14.1723Q73.9431 14.0775 74.0162 13.9789Q74.0893 13.8803 74.1575 13.7783Q74.2257 13.6763 74.2888 13.571Q74.3519 13.4657 74.4097 13.3575Q74.4676 13.2493 74.52 13.1383Q74.5725 13.0274 74.6195 12.914Q74.6664 12.8007 74.7078 12.6851Q74.7491 12.5696 74.7847 12.4521Q74.8204 12.3347 74.8502 12.2157Q74.88 12.0966 74.9039 11.9763Q74.9279 11.8559 74.9459 11.7345Q74.9639 11.6131 74.9759 11.491Q74.988 11.3689 74.994 11.2463Q75 11.1237 75 11.001L75 10.999Q75 10.8763 74.994 10.7537Q74.988 10.6311 74.9759 10.509Q74.9639 10.3869 74.9459 10.2655Q74.9279 10.1441 74.9039 10.0237Q74.88 9.90338 74.8502 9.78434Q74.8204 9.6653 74.7847 9.54787Q74.7491 9.43043 74.7078 9.31489Q74.6664 9.19934 74.6195 9.08596Q74.5725 8.97259 74.52 8.86165Q74.4676 8.75071 74.4097 8.64249Q74.3519 8.53426 74.2888 8.429Q74.2257 8.32374 74.1575 8.2217Q74.0893 8.11967 74.0162 8.0211Q73.9431 7.92253 73.8653 7.82767Q73.7874 7.7328 73.705 7.64188Q73.6226 7.55095 73.5358 7.46417Q73.449 7.3774 73.3581 7.29498Q73.2672 7.21257 73.1723 7.13472Q73.0775 7.05687 72.9789 6.98377Q72.8803 6.91066 72.7783 6.84248Q72.6762 6.7743 72.571 6.71121Q72.4657 6.64812 72.3575 6.59027Q72.2493 6.53243 72.1383 6.47996Q72.0274 6.42749 71.914 6.38053Q71.8007 6.33356 71.6851 6.29222Q71.5696 6.25088 71.4521 6.21526Q71.3347 6.17963 71.2157 6.14981Q71.0966 6.12 70.9762 6.09605Q70.8559 6.07211 70.7345 6.05411Q70.6131 6.0361 70.491 6.02407Q70.3689 6.01204 70.2463 6.00602Q70.1237 6 70.001 6Z" transform="translate(2 178)" id="Rectangle-2-Copy-Difference" fill="#FFFFFF" fill-rule="evenodd" stroke="none" />
  </g>
</svg>